<mxfile host="app.diagrams.net" modified="2023-06-13T11:07:34.624Z" agent="Mozilla/5.0 (X11; Ubuntu; Linux x86_64; rv:109.0) Gecko/20100101 Firefox/114.0" etag="XutCOZo4ebqbVsWDtRBC" version="21.3.8" type="device">
  <diagram name="Page-1" id="F4Z-Leb8WxO9eprkBROh">
    <mxGraphModel dx="1703" dy="1094" grid="1" gridSize="10" guides="1" tooltips="1" connect="1" arrows="1" fold="1" page="1" pageScale="1" pageWidth="850" pageHeight="1100" math="0" shadow="0">
      <root>
        <mxCell id="0" />
        <mxCell id="1" parent="0" />
        <mxCell id="HiXTfu7oj7qjVwEcYv21-3" value="" style="rounded=1;whiteSpace=wrap;html=1;dashed=1;arcSize=8;" vertex="1" parent="1">
          <mxGeometry x="220" y="160" width="560" height="290" as="geometry" />
        </mxCell>
        <mxCell id="hkSiyoPHmYX9CYbWdI6p-1" value="" style="rounded=0;whiteSpace=wrap;html=1;" parent="1" vertex="1">
          <mxGeometry x="400" y="180" width="160" height="60" as="geometry" />
        </mxCell>
        <mxCell id="hkSiyoPHmYX9CYbWdI6p-4" value="" style="rounded=0;whiteSpace=wrap;html=1;" parent="1" vertex="1">
          <mxGeometry x="240" y="180" width="160" height="60" as="geometry" />
        </mxCell>
        <mxCell id="hkSiyoPHmYX9CYbWdI6p-3" value="&lt;font style=&quot;font-size: 20px;&quot; face=&quot;Serif&quot;&gt;Striatum D1&lt;br&gt;&lt;/font&gt;" style="text;html=1;strokeColor=none;fillColor=none;align=center;verticalAlign=middle;whiteSpace=wrap;rounded=0;" parent="1" vertex="1">
          <mxGeometry x="240" y="180" width="160" height="60" as="geometry" />
        </mxCell>
        <mxCell id="hkSiyoPHmYX9CYbWdI6p-5" value="" style="rounded=0;whiteSpace=wrap;html=1;" parent="1" vertex="1">
          <mxGeometry x="400" y="60" width="160" height="60" as="geometry" />
        </mxCell>
        <mxCell id="hkSiyoPHmYX9CYbWdI6p-2" value="&lt;font style=&quot;font-size: 20px;&quot; face=&quot;Serif&quot;&gt;Cortex&lt;/font&gt;" style="text;html=1;strokeColor=none;fillColor=none;align=center;verticalAlign=middle;whiteSpace=wrap;rounded=0;" parent="1" vertex="1">
          <mxGeometry x="400" y="60" width="160" height="60" as="geometry" />
        </mxCell>
        <mxCell id="hkSiyoPHmYX9CYbWdI6p-6" value="" style="rounded=0;whiteSpace=wrap;html=1;" parent="1" vertex="1">
          <mxGeometry x="600" y="180" width="160" height="60" as="geometry" />
        </mxCell>
        <mxCell id="hkSiyoPHmYX9CYbWdI6p-7" value="" style="rounded=0;whiteSpace=wrap;html=1;" parent="1" vertex="1">
          <mxGeometry x="400" y="270" width="160" height="60" as="geometry" />
        </mxCell>
        <mxCell id="hkSiyoPHmYX9CYbWdI6p-8" value="" style="rounded=0;whiteSpace=wrap;html=1;" parent="1" vertex="1">
          <mxGeometry x="400" y="370" width="160" height="60" as="geometry" />
        </mxCell>
        <mxCell id="hkSiyoPHmYX9CYbWdI6p-9" value="" style="rounded=0;whiteSpace=wrap;html=1;" parent="1" vertex="1">
          <mxGeometry x="400" y="470" width="160" height="60" as="geometry" />
        </mxCell>
        <mxCell id="hkSiyoPHmYX9CYbWdI6p-10" value="&lt;font style=&quot;font-size: 20px;&quot; face=&quot;Serif&quot;&gt;Striatum D2&lt;br&gt;&lt;/font&gt;" style="text;html=1;strokeColor=none;fillColor=none;align=center;verticalAlign=middle;whiteSpace=wrap;rounded=0;" parent="1" vertex="1">
          <mxGeometry x="400" y="180" width="160" height="60" as="geometry" />
        </mxCell>
        <mxCell id="hkSiyoPHmYX9CYbWdI6p-11" value="&lt;font style=&quot;font-size: 20px;&quot; face=&quot;Serif&quot;&gt;STN&lt;/font&gt;" style="text;html=1;strokeColor=none;fillColor=none;align=center;verticalAlign=middle;whiteSpace=wrap;rounded=0;" parent="1" vertex="1">
          <mxGeometry x="600" y="180" width="160" height="60" as="geometry" />
        </mxCell>
        <mxCell id="hkSiyoPHmYX9CYbWdI6p-13" value="" style="endArrow=classic;html=1;rounded=0;exitX=0;exitY=0.5;exitDx=0;exitDy=0;entryX=0.5;entryY=0;entryDx=0;entryDy=0;edgeStyle=orthogonalEdgeStyle;strokeWidth=4;fillColor=#dae8fc;strokeColor=#6c8ebf;dashed=1;dashPattern=1 1;" parent="1" source="hkSiyoPHmYX9CYbWdI6p-2" target="hkSiyoPHmYX9CYbWdI6p-3" edge="1">
          <mxGeometry width="50" height="50" relative="1" as="geometry">
            <mxPoint x="490" y="350" as="sourcePoint" />
            <mxPoint x="540" y="300" as="targetPoint" />
          </mxGeometry>
        </mxCell>
        <mxCell id="hkSiyoPHmYX9CYbWdI6p-14" value="" style="endArrow=classic;html=1;rounded=0;exitX=0.5;exitY=1;exitDx=0;exitDy=0;entryX=0.5;entryY=0;entryDx=0;entryDy=0;strokeWidth=4;fillColor=#f8cecc;strokeColor=#b85450;dashed=1;dashPattern=1 1;" parent="1" source="hkSiyoPHmYX9CYbWdI6p-2" target="hkSiyoPHmYX9CYbWdI6p-10" edge="1">
          <mxGeometry width="50" height="50" relative="1" as="geometry">
            <mxPoint x="570" y="180" as="sourcePoint" />
            <mxPoint x="620" y="130" as="targetPoint" />
          </mxGeometry>
        </mxCell>
        <mxCell id="hkSiyoPHmYX9CYbWdI6p-16" value="" style="endArrow=classic;html=1;rounded=0;exitX=1;exitY=0.5;exitDx=0;exitDy=0;entryX=0.5;entryY=0;entryDx=0;entryDy=0;edgeStyle=orthogonalEdgeStyle;strokeWidth=4;fillColor=#d5e8d4;strokeColor=#82b366;dashed=1;dashPattern=1 1;" parent="1" source="hkSiyoPHmYX9CYbWdI6p-2" target="hkSiyoPHmYX9CYbWdI6p-11" edge="1">
          <mxGeometry width="50" height="50" relative="1" as="geometry">
            <mxPoint x="490" y="350" as="sourcePoint" />
            <mxPoint x="540" y="300" as="targetPoint" />
          </mxGeometry>
        </mxCell>
        <mxCell id="hkSiyoPHmYX9CYbWdI6p-17" value="&lt;font style=&quot;font-size: 20px;&quot; face=&quot;serif&quot;&gt;GPe&lt;/font&gt;" style="text;html=1;strokeColor=none;fillColor=none;align=center;verticalAlign=middle;whiteSpace=wrap;rounded=0;" parent="1" vertex="1">
          <mxGeometry x="400" y="270" width="160" height="60" as="geometry" />
        </mxCell>
        <mxCell id="hkSiyoPHmYX9CYbWdI6p-18" value="&lt;font style=&quot;font-size: 20px;&quot; face=&quot;serif&quot;&gt;SNr&lt;/font&gt;" style="text;html=1;strokeColor=none;fillColor=none;align=center;verticalAlign=middle;whiteSpace=wrap;rounded=0;" parent="1" vertex="1">
          <mxGeometry x="400" y="370" width="160" height="60" as="geometry" />
        </mxCell>
        <mxCell id="hkSiyoPHmYX9CYbWdI6p-19" value="&lt;font style=&quot;font-size: 20px;&quot; face=&quot;serif&quot;&gt;Thalamus&lt;/font&gt;" style="text;html=1;strokeColor=none;fillColor=none;align=center;verticalAlign=middle;whiteSpace=wrap;rounded=0;" parent="1" vertex="1">
          <mxGeometry x="400" y="470" width="160" height="60" as="geometry" />
        </mxCell>
        <mxCell id="hkSiyoPHmYX9CYbWdI6p-64" value="" style="endArrow=oval;html=1;rounded=0;exitX=0.5;exitY=1;exitDx=0;exitDy=0;entryX=0;entryY=0.75;entryDx=0;entryDy=0;edgeStyle=orthogonalEdgeStyle;strokeWidth=4;fillColor=#dae8fc;strokeColor=#6c8ebf;endFill=1;dashed=1;dashPattern=1 1;" parent="1" source="hkSiyoPHmYX9CYbWdI6p-4" target="hkSiyoPHmYX9CYbWdI6p-18" edge="1">
          <mxGeometry width="50" height="50" relative="1" as="geometry">
            <mxPoint x="650" y="390" as="sourcePoint" />
            <mxPoint x="700" y="340" as="targetPoint" />
          </mxGeometry>
        </mxCell>
        <mxCell id="hkSiyoPHmYX9CYbWdI6p-65" value="" style="endArrow=oval;html=1;rounded=0;exitX=0.5;exitY=1;exitDx=0;exitDy=0;entryX=0.5;entryY=0;entryDx=0;entryDy=0;strokeWidth=4;endFill=1;fillColor=#f8cecc;strokeColor=#b85450;dashed=1;dashPattern=1 1;" parent="1" source="hkSiyoPHmYX9CYbWdI6p-1" target="hkSiyoPHmYX9CYbWdI6p-17" edge="1">
          <mxGeometry width="50" height="50" relative="1" as="geometry">
            <mxPoint x="650" y="390" as="sourcePoint" />
            <mxPoint x="700" y="340" as="targetPoint" />
          </mxGeometry>
        </mxCell>
        <mxCell id="hkSiyoPHmYX9CYbWdI6p-66" value="" style="endArrow=oval;html=1;rounded=0;exitX=0.5;exitY=1;exitDx=0;exitDy=0;entryX=0.5;entryY=0;entryDx=0;entryDy=0;strokeWidth=4;endFill=1;fillColor=#f8cecc;strokeColor=#b85450;" parent="1" source="hkSiyoPHmYX9CYbWdI6p-7" target="hkSiyoPHmYX9CYbWdI6p-18" edge="1">
          <mxGeometry width="50" height="50" relative="1" as="geometry">
            <mxPoint x="650" y="390" as="sourcePoint" />
            <mxPoint x="700" y="340" as="targetPoint" />
          </mxGeometry>
        </mxCell>
        <mxCell id="hkSiyoPHmYX9CYbWdI6p-67" value="" style="endArrow=classic;html=1;rounded=0;exitX=0.5;exitY=1;exitDx=0;exitDy=0;entryX=1;entryY=0.75;entryDx=0;entryDy=0;edgeStyle=orthogonalEdgeStyle;strokeWidth=4;fillColor=#d5e8d4;strokeColor=#82b366;dashed=1;dashPattern=1 1;" parent="1" source="hkSiyoPHmYX9CYbWdI6p-6" target="hkSiyoPHmYX9CYbWdI6p-18" edge="1">
          <mxGeometry width="50" height="50" relative="1" as="geometry">
            <mxPoint x="650" y="390" as="sourcePoint" />
            <mxPoint x="700" y="340" as="targetPoint" />
          </mxGeometry>
        </mxCell>
        <mxCell id="hkSiyoPHmYX9CYbWdI6p-68" value="" style="endArrow=oval;html=1;rounded=0;exitX=0.5;exitY=1;exitDx=0;exitDy=0;entryX=0.5;entryY=0;entryDx=0;entryDy=0;strokeWidth=4;endFill=1;" parent="1" source="hkSiyoPHmYX9CYbWdI6p-8" target="hkSiyoPHmYX9CYbWdI6p-19" edge="1">
          <mxGeometry width="50" height="50" relative="1" as="geometry">
            <mxPoint x="650" y="470" as="sourcePoint" />
            <mxPoint x="700" y="420" as="targetPoint" />
          </mxGeometry>
        </mxCell>
        <mxCell id="hkSiyoPHmYX9CYbWdI6p-96" value="&lt;font style=&quot;font-size: 20px;&quot; face=&quot;serif&quot;&gt;BG&lt;/font&gt;" style="text;html=1;strokeColor=none;fillColor=none;align=center;verticalAlign=middle;whiteSpace=wrap;rounded=0;" parent="1" vertex="1">
          <mxGeometry x="720" y="410" width="50" height="30" as="geometry" />
        </mxCell>
        <mxCell id="HiXTfu7oj7qjVwEcYv21-4" value="" style="endArrow=none;html=1;rounded=0;strokeWidth=4;fillColor=#dae8fc;strokeColor=#6c8ebf;" edge="1" parent="1" target="HiXTfu7oj7qjVwEcYv21-5">
          <mxGeometry width="50" height="50" relative="1" as="geometry">
            <mxPoint x="220" y="480" as="sourcePoint" />
            <mxPoint x="260" y="480" as="targetPoint" />
          </mxGeometry>
        </mxCell>
        <mxCell id="HiXTfu7oj7qjVwEcYv21-5" value="&lt;div align=&quot;left&quot;&gt;&lt;font face=&quot;serif&quot;&gt;Direct Pathway&lt;/font&gt;&lt;/div&gt;" style="text;html=1;strokeColor=none;fillColor=none;align=left;verticalAlign=middle;whiteSpace=wrap;rounded=0;" vertex="1" parent="1">
          <mxGeometry x="240" y="470" width="140" height="20" as="geometry" />
        </mxCell>
        <mxCell id="HiXTfu7oj7qjVwEcYv21-6" value="" style="endArrow=none;html=1;rounded=0;strokeWidth=4;fillColor=#f8cecc;strokeColor=#b85450;" edge="1" parent="1" target="HiXTfu7oj7qjVwEcYv21-7">
          <mxGeometry width="50" height="50" relative="1" as="geometry">
            <mxPoint x="220" y="500" as="sourcePoint" />
            <mxPoint x="260" y="500" as="targetPoint" />
          </mxGeometry>
        </mxCell>
        <mxCell id="HiXTfu7oj7qjVwEcYv21-7" value="&lt;div align=&quot;left&quot;&gt;&lt;font face=&quot;Serif&quot;&gt;Indirect Pathway&lt;/font&gt;&lt;/div&gt;" style="text;html=1;strokeColor=none;fillColor=none;align=left;verticalAlign=middle;whiteSpace=wrap;rounded=0;" vertex="1" parent="1">
          <mxGeometry x="240" y="490" width="140" height="20" as="geometry" />
        </mxCell>
        <mxCell id="HiXTfu7oj7qjVwEcYv21-8" value="" style="endArrow=none;html=1;rounded=0;strokeWidth=4;fillColor=#d5e8d4;strokeColor=#82b366;" edge="1" parent="1" target="HiXTfu7oj7qjVwEcYv21-9">
          <mxGeometry width="50" height="50" relative="1" as="geometry">
            <mxPoint x="220" y="520" as="sourcePoint" />
            <mxPoint x="260" y="520" as="targetPoint" />
          </mxGeometry>
        </mxCell>
        <mxCell id="HiXTfu7oj7qjVwEcYv21-9" value="&lt;div align=&quot;left&quot;&gt;&lt;font face=&quot;serif&quot;&gt;Hyperdirect Pathway&lt;/font&gt;&lt;/div&gt;" style="text;html=1;strokeColor=none;fillColor=none;align=left;verticalAlign=middle;whiteSpace=wrap;rounded=0;" vertex="1" parent="1">
          <mxGeometry x="240" y="510" width="140" height="20" as="geometry" />
        </mxCell>
        <mxCell id="HiXTfu7oj7qjVwEcYv21-10" value="" style="endArrow=classic;html=1;rounded=0;strokeWidth=2;fillColor=#dae8fc;strokeColor=#000000;endFill=1;" edge="1" parent="1" target="HiXTfu7oj7qjVwEcYv21-11">
          <mxGeometry width="50" height="50" relative="1" as="geometry">
            <mxPoint x="610" y="485" as="sourcePoint" />
            <mxPoint x="650" y="480" as="targetPoint" />
          </mxGeometry>
        </mxCell>
        <mxCell id="HiXTfu7oj7qjVwEcYv21-11" value="&lt;pre style=&quot;text-align:left&quot; id=&quot;tw-target-text&quot; data-placeholder=&quot;Übersetzung&quot; class=&quot;tw-data-text tw-text-large tw-ta&quot;&gt;&lt;font face=&quot;serif&quot;&gt;Excitatory&lt;/font&gt;&lt;/pre&gt;" style="text;html=1;strokeColor=none;fillColor=none;align=left;verticalAlign=middle;whiteSpace=wrap;rounded=0;" vertex="1" parent="1">
          <mxGeometry x="630" y="470" width="80" height="30" as="geometry" />
        </mxCell>
        <mxCell id="HiXTfu7oj7qjVwEcYv21-14" value="" style="endArrow=oval;html=1;rounded=0;strokeWidth=2;fillColor=#d5e8d4;strokeColor=#000000;endFill=1;" edge="1" parent="1">
          <mxGeometry width="50" height="50" relative="1" as="geometry">
            <mxPoint x="610" y="515" as="sourcePoint" />
            <mxPoint x="625" y="515" as="targetPoint" />
          </mxGeometry>
        </mxCell>
        <mxCell id="HiXTfu7oj7qjVwEcYv21-15" value="&lt;pre style=&quot;text-align:left&quot; id=&quot;tw-target-text&quot; data-placeholder=&quot;Übersetzung&quot; class=&quot;tw-data-text tw-text-large tw-ta&quot;&gt;&lt;font face=&quot;serif&quot;&gt;Inhibitory&lt;/font&gt;&lt;/pre&gt;" style="text;html=1;strokeColor=none;fillColor=none;align=left;verticalAlign=middle;whiteSpace=wrap;rounded=0;" vertex="1" parent="1">
          <mxGeometry x="630" y="500" width="80" height="30" as="geometry" />
        </mxCell>
        <mxCell id="HiXTfu7oj7qjVwEcYv21-16" value="" style="endArrow=none;html=1;rounded=0;strokeWidth=4;fillColor=#dae8fc;strokeColor=#000000;dashed=1;dashPattern=1 1;" edge="1" parent="1" target="HiXTfu7oj7qjVwEcYv21-17">
          <mxGeometry width="50" height="50" relative="1" as="geometry">
            <mxPoint x="710" y="485" as="sourcePoint" />
            <mxPoint x="750" y="480" as="targetPoint" />
          </mxGeometry>
        </mxCell>
        <mxCell id="HiXTfu7oj7qjVwEcYv21-17" value="&lt;font face=&quot;serif&quot;&gt;plastic&lt;/font&gt;" style="text;html=1;strokeColor=none;fillColor=none;align=left;verticalAlign=middle;whiteSpace=wrap;rounded=0;" vertex="1" parent="1">
          <mxGeometry x="730" y="470" width="50" height="30" as="geometry" />
        </mxCell>
        <mxCell id="HiXTfu7oj7qjVwEcYv21-18" value="" style="endArrow=none;html=1;rounded=0;strokeWidth=4;fillColor=#d5e8d4;strokeColor=#000000;" edge="1" parent="1" target="HiXTfu7oj7qjVwEcYv21-19">
          <mxGeometry width="50" height="50" relative="1" as="geometry">
            <mxPoint x="710" y="515" as="sourcePoint" />
            <mxPoint x="750" y="520" as="targetPoint" />
          </mxGeometry>
        </mxCell>
        <mxCell id="HiXTfu7oj7qjVwEcYv21-19" value="&lt;font face=&quot;serif&quot;&gt;fix&lt;/font&gt;" style="text;html=1;strokeColor=none;fillColor=none;align=left;verticalAlign=middle;whiteSpace=wrap;rounded=0;" vertex="1" parent="1">
          <mxGeometry x="730" y="500" width="50" height="30" as="geometry" />
        </mxCell>
      </root>
    </mxGraphModel>
  </diagram>
</mxfile>
